<?xml version="1.0" encoding="UTF-8" standalone="no"?>
<svg width="22px" height="22px" viewBox="0 0 22 22" version="1.1" xmlns="http://www.w3.org/2000/svg" xmlns:xlink="http://www.w3.org/1999/xlink" xmlns:sketch="http://www.bohemiancoding.com/sketch/ns">
    <!-- Generator: Sketch 3.3 (11970) - http://www.bohemiancoding.com/sketch -->
    <title>facebook icon</title>
    <desc>Created with Sketch.</desc>
    <defs></defs>
    <g id="Home" stroke="none" stroke-width="1" fill="none" fill-rule="evenodd" sketch:type="MSPage">
        <g id="Version-5" sketch:type="MSArtboardGroup" transform="translate(-1229.000000, -89.000000)" fill="#90281F">
            <g id="header" sketch:type="MSLayerGroup">
                <g id="navigation" transform="translate(0.000000, 50.000000)" sketch:type="MSShapeGroup">
                    <g id="social" transform="translate(1229.600000, 39.421053)">
                        <path d="M11.4290414,21.1410651 C16.8741347,20.7081127 21.1578947,16.1522078 21.1578947,10.595777 C21.1578947,6.95969481 19.3234665,3.75206625 16.5296053,1.84788651 L16.5296053,3.2718904 L12.2791353,3.2718904 C11.8098835,3.2718904 11.4290414,3.6364572 11.4290414,4.08565558 L11.4290414,6.52695113 L16.1045583,6.52695113 L15.2544643,9.78201185 L11.4290414,9.78201185 L11.4290414,21.1410651 Z M11.6122153,0.0666473432 C11.2722453,0.0336926192 10.9275656,0.0168296679 10.5789474,0.0168296679 C4.73635607,0.0168296679 0,4.75318574 0,10.595777 C0,15.5590956 3.4180439,19.7240873 8.02866541,20.8652858 L8.02866541,9.78201185 L4.62828947,9.78201185 L4.62828947,6.52695113 L8.02866541,6.52695113 L8.02866541,4.08565558 C8.02866541,2.05604663 9.58182026,0.373065422 11.6122153,0.0666473432 Z" id="facebook-icon"></path>
                    </g>
                </g>
            </g>
        </g>
    </g>
</svg>